<?xml version="1.0" standalone="no"?>
<!DOCTYPE svg PUBLIC "-//W3C//DTD SVG 20010904//EN"
 "http://www.w3.org/TR/2001/REC-SVG-20010904/DTD/svg10.dtd">
<svg version="1.0" xmlns="http://www.w3.org/2000/svg"
 width="720.000000pt" height="1535.000000pt" viewBox="0 0 720.000000 1535.000000"
 preserveAspectRatio="xMidYMid meet">

<g transform="translate(0.000000,1535.000000) scale(0.100000,-0.100000)"
fill="#000000" stroke="none">
<path d="M3691 10421 c-10 -6 -10 -10 -1 -16 13 -8 24 -1 19 14 -3 6 -10 7
-18 2z"/>
<path d="M3685 10359 c4 -11 3 -19 -2 -19 -4 0 -8 -11 -8 -24 0 -18 7 -26 23
-29 26 -5 30 9 5 16 -17 4 -17 5 0 6 9 0 17 6 17 12 0 5 -4 7 -10 4 -5 -3 -10
-1 -10 4 0 6 6 11 13 11 9 0 8 3 -2 9 -11 7 -10 11 4 19 16 8 14 10 -9 10 -21
0 -25 -4 -21 -19z"/>
<path d="M3686 10248 c3 -4 0 -8 -5 -8 -22 0 -10 -28 14 -32 14 -3 25 -1 25 3
0 5 -4 9 -9 9 -6 0 -8 8 -6 18 2 11 -3 19 -10 19 -8 0 -12 -4 -9 -9z"/>
<path d="M3686 10161 c-17 -6 -17 -8 -4 -14 10 -3 19 0 22 9 3 8 4 14 3 13 -1
0 -11 -4 -21 -8z"/>
<path d="M3679 10121 c11 -7 11 -9 0 -14 -10 -4 -10 -6 2 -6 26 -1 31 25 6 27
-16 1 -18 -1 -8 -7z"/>
<path d="M4241 10098 c-5 -13 -6 -28 -4 -35 6 -16 40 -12 40 4 0 9 -4 10 -14
2 -10 -9 -13 -8 -13 1 0 6 9 14 20 17 11 3 20 10 20 15 0 5 -10 6 -21 3 -15
-5 -19 -4 -15 4 4 6 5 11 1 11 -3 0 -9 -10 -14 -22z"/>
<path d="M4157 10044 c-3 -3 -23 -6 -44 -6 -28 0 -33 -2 -18 -8 16 -6 11 -10
-27 -20 -27 -7 -48 -16 -48 -20 0 -5 -17 -8 -37 -8 -55 0 -60 -1 -43 -12 13
-8 12 -10 -2 -10 -10 0 -18 -5 -18 -11 0 -13 19 -7 139 42 51 21 96 37 100 34
4 -2 8 2 8 10 0 17 -1 18 -10 9z"/>
<path d="M4254 9999 c-4 -7 -3 -9 4 -5 6 3 13 -2 15 -11 4 -16 5 -16 6 -1 1
21 -15 32 -25 17z"/>
<path d="M4255 9950 c-8 -13 5 -13 25 0 13 8 13 10 -2 10 -9 0 -20 -4 -23 -10z"/>
<path d="M4261 9931 c-9 -6 -10 -11 -2 -15 13 -8 31 1 31 15 0 11 -11 11 -29
0z"/>
<path d="M3655 9900 c3 -5 10 -10 16 -10 5 0 9 5 9 10 0 6 -7 10 -16 10 -8 0
-12 -4 -9 -10z"/>
<path d="M3699 9888 c-35 -9 -68 -48 -63 -75 1 -7 2 -17 3 -23 3 -27 71 1 71
29 0 6 9 11 20 11 11 0 23 7 26 15 4 8 13 15 22 15 11 0 9 5 -8 20 -13 11 -26
20 -29 19 -3 -1 -22 -5 -42 -11z"/>
<path d="M4998 9693 c7 -3 16 -2 19 1 4 3 -2 6 -13 5 -11 0 -14 -3 -6 -6z"/>
<path d="M4755 9430 c-3 -5 -2 -10 4 -10 5 0 13 5 16 10 3 6 2 10 -4 10 -5 0
-13 -4 -16 -10z"/>
<path d="M1620 9425 c0 -8 29 -12 39 -5 9 5 4 8 -13 8 -14 0 -26 -2 -26 -3z"/>
<path d="M1614 9405 c11 -8 29 -15 40 -15 25 0 19 4 -24 18 -32 11 -33 10 -16
-3z"/>
<path d="M3696 9399 c3 -5 1 -9 -5 -9 -6 0 -8 -7 -4 -16 3 -8 12 -13 20 -10 8
4 11 1 7 -5 -4 -7 2 -9 17 -7 12 1 24 10 26 18 4 13 3 13 -6 0 -7 -10 -11 -11
-11 -2 0 6 -10 12 -22 13 -21 0 -22 1 -4 8 19 7 19 8 -2 13 -12 4 -20 2 -16
-3z"/>
<path d="M4739 9401 c7 -5 10 -14 7 -20 -4 -6 -5 -11 -2 -11 3 0 10 9 16 20 9
17 8 20 -12 20 -17 0 -19 -3 -9 -9z"/>
<path d="M5023 9365 c-10 -11 -8 -15 10 -21 12 -4 24 -9 27 -13 3 -3 32 -19
65 -35 184 -89 318 -193 469 -366 26 -30 76 -85 110 -121 76 -82 103 -117 142
-189 17 -31 39 -68 48 -81 9 -14 13 -29 9 -32 -3 -4 -1 -7 5 -7 7 0 11 -3 10
-7 -4 -13 24 -73 33 -73 5 0 9 -11 9 -25 0 -14 5 -25 10 -25 6 0 10 -4 10 -9
0 -5 12 -35 27 -67 15 -33 28 -72 30 -89 1 -16 9 -64 18 -105 14 -75 18 -226
11 -435 -3 -77 -1 -112 7 -117 9 -6 9 -8 0 -8 -16 0 -17 -36 -2 -46 8 -5 7 -9
-2 -15 -11 -5 -14 -29 -14 -86 0 -53 -4 -83 -14 -93 -9 -10 -10 -15 -2 -18 8
-3 8 -9 0 -24 -8 -15 -8 -19 1 -13 8 5 7 -2 -2 -21 -8 -16 -14 -45 -13 -64 1
-19 -3 -41 -8 -47 -5 -7 -6 -13 -3 -13 4 0 2 -9 -4 -20 -9 -17 -8 -20 12 -20
19 0 20 -2 8 -10 -8 -5 -10 -10 -5 -10 28 0 44 39 50 123 1 15 5 30 8 34 4 3
1 13 -6 21 -10 13 -9 14 1 8 11 -6 12 -1 9 23 -3 17 -1 31 5 31 5 0 8 8 7 18
-1 9 0 19 1 22 6 17 6 129 0 125 -9 -6 -1 34 10 50 11 17 5 86 -9 95 -8 5 -9
10 -3 14 11 7 11 24 -1 43 -5 9 -3 11 6 7 10 -3 14 4 15 26 0 16 -4 30 -9 30
-5 0 -9 5 -9 11 0 5 4 8 9 5 5 -3 11 1 15 9 3 8 1 17 -5 21 -6 4 -7 10 0 17 5
7 9 40 10 74 0 34 1 65 2 70 1 4 0 13 -1 18 -1 6 -3 24 -3 40 -1 20 -7 29 -16
27 -11 -2 -12 0 -4 10 13 15 11 107 -2 128 -5 8 -8 25 -6 38 1 14 -5 30 -16
39 -10 8 -12 11 -4 7 20 -10 6 42 -20 79 -11 15 -15 27 -9 27 6 0 4 7 -4 16
-9 8 -14 20 -10 25 3 5 -2 12 -10 15 -9 3 -16 13 -16 21 0 8 -4 12 -8 9 -5 -3
-8 5 -7 17 2 25 -15 58 -27 51 -4 -3 -5 2 -2 10 3 9 1 16 -5 16 -6 0 -11 9
-11 19 0 10 -7 22 -16 25 -10 4 -14 14 -11 26 3 11 1 23 -4 26 -5 3 -21 28
-34 55 -14 27 -32 49 -40 49 -9 0 -12 6 -8 16 4 11 -8 29 -37 55 -23 21 -39
39 -34 39 5 0 1 5 -8 11 -10 5 -18 15 -18 21 0 14 -63 92 -111 139 -21 20 -36
39 -33 41 2 3 -14 17 -36 32 -22 14 -40 31 -40 37 0 6 -7 9 -15 6 -8 -4 -17
-1 -21 5 -4 7 -3 8 4 4 18 -11 14 3 -7 25 -11 12 -24 19 -29 15 -11 -7 -45 28
-35 37 3 4 -6 7 -20 7 -15 0 -27 5 -27 11 0 5 -4 8 -9 5 -4 -3 -13 6 -20 20
-6 14 -16 22 -21 19 -6 -3 -10 -1 -10 4 0 6 -10 11 -22 11 -19 0 -20 2 -8 10
12 8 11 10 -7 10 -13 0 -23 4 -23 9 0 5 -23 15 -50 22 -32 8 -46 16 -38 21 9
5 7 8 -7 9 -78 6 -98 9 -109 18 -7 6 -15 4 -23 -4z"/>
<path d="M3773 9350 c-2 -22 27 -36 38 -18 5 8 3 15 -4 17 -7 2 -17 7 -22 12
-7 5 -11 1 -12 -11z"/>
<path d="M3824 9321 c4 -7 -1 -11 -13 -11 -11 0 -22 -3 -24 -7 -3 -5 14 -8 36
-8 47 1 61 27 18 33 -15 2 -21 0 -17 -7z"/>
<path d="M3894 9312 c4 -7 2 -12 -4 -12 -7 0 -4 -7 5 -16 9 -9 19 -13 23 -9 4
4 1 10 -6 12 -6 3 -10 9 -7 13 3 5 0 12 -6 16 -8 4 -9 3 -5 -4z"/>
<path d="M3010 9283 c0 -10 4 -14 8 -8 4 6 11 13 16 18 5 4 2 7 -7 7 -10 0
-17 -8 -17 -17z"/>
<path d="M3742 9288 c-17 -17 -15 -28 4 -28 9 0 12 -5 8 -12 -4 -7 -3 -8 4 -4
11 7 11 40 1 51 -3 2 -11 -1 -17 -7z"/>
<path d="M3930 9270 c0 -12 -4 -18 -11 -15 -5 4 -20 -1 -32 -12 -19 -16 -20
-16 -8 0 12 15 12 17 -5 11 -10 -3 -25 -8 -33 -10 -18 -6 40 -38 84 -48 43 -9
65 -14 114 -26 24 -6 50 -9 58 -6 22 9 14 27 -17 37 -16 6 -27 15 -24 20 3 5
-4 9 -16 9 -11 0 -32 7 -45 16 -14 9 -32 13 -41 10 -12 -4 -15 -2 -11 9 4 8 2
17 -3 20 -6 4 -10 -3 -10 -15z"/>
<path d="M1963 9236 c3 -8 1 -17 -6 -20 -8 -3 -6 -5 3 -5 13 -1 13 -2 0 -12
-13 -9 -13 -10 0 -8 29 3 41 -1 35 -11 -3 -6 4 -10 17 -10 16 0 19 -3 10 -9
-11 -7 -10 -10 3 -15 24 -9 27 -8 19 6 -4 6 11 -3 34 -21 31 -26 47 -32 66
-27 19 5 24 3 20 -8 -4 -10 5 -15 30 -18 27 -3 36 0 37 12 0 10 2 11 6 3 2 -7
14 -13 26 -13 21 0 20 1 -3 17 -14 9 -28 21 -31 26 -3 4 -25 6 -47 2 -33 -5
-41 -3 -36 8 3 9 16 13 32 11 l27 -4 -25 9 c-14 4 -33 7 -43 5 -10 -2 -15 1
-12 7 4 5 -5 13 -19 19 -14 5 -26 14 -26 19 0 5 -17 8 -37 6 -20 -2 -31 0 -24
4 8 5 2 10 -19 14 -17 4 -29 11 -25 17 3 5 1 10 -5 10 -7 0 -10 -6 -7 -14z"/>
<path d="M2929 9248 c-11 -37 -5 -45 21 -28 13 8 12 10 -3 10 -10 0 -15 5 -12
10 3 6 4 10 1 10 -3 0 -6 -1 -7 -2z"/>
<path d="M5126 9218 c19 -64 110 -183 150 -199 13 -4 24 -14 24 -21 0 -8 16
-14 45 -15 37 -2 43 0 38 13 -5 13 -1 15 15 10 11 -4 23 -2 27 4 3 5 1 10 -5
10 -6 0 -9 4 -6 9 4 5 -3 7 -13 4 -11 -3 -28 0 -38 6 -10 6 -12 11 -5 11 6 0
12 5 12 11 0 5 -4 8 -9 5 -5 -4 -7 3 -4 13 10 38 -125 149 -168 138 -10 -3
-23 1 -30 9 -19 23 -41 18 -33 -8z"/>
<path d="M2854 9192 c10 -10 45 -12 50 -3 3 4 -8 8 -25 9 -17 0 -28 -2 -25 -6z"/>
<path d="M2826 9171 c-19 -7 -19 -8 3 -14 24 -6 51 0 51 12 0 9 -31 10 -54 2z"/>
<path d="M2795 9140 c-19 -8 -19 -9 3 -9 12 -1 22 4 22 9 0 6 -1 10 -2 9 -2 0
-12 -4 -23 -9z"/>
<path d="M1780 9110 c13 -8 12 -10 -2 -10 -24 0 -111 -67 -98 -75 16 -10 12
-25 -7 -25 -15 0 -16 2 -3 10 20 13 6 12 -24 -1 -14 -7 -22 -17 -19 -25 3 -9
-2 -14 -13 -14 -16 0 -17 -2 -4 -10 13 -8 12 -10 -3 -10 -20 0 -47 -23 -47
-40 0 -6 -11 -15 -24 -21 -14 -7 -22 -17 -20 -24 3 -7 0 -16 -7 -21 -8 -5 -10
-3 -4 7 6 11 5 12 -6 1 -10 -9 -11 -17 -3 -30 9 -14 7 -17 -13 -18 -13 -1 -33
-10 -44 -20 -20 -18 -20 -19 -2 -32 17 -14 17 -14 0 -8 -27 9 -41 -3 -26 -21
11 -12 10 -14 -2 -13 -7 1 -18 2 -24 1 -12 -1 -65 -46 -65 -55 0 -3 -16 -23
-36 -43 -19 -21 -43 -50 -52 -65 -9 -16 -20 -28 -25 -28 -4 0 -5 -4 -2 -10 3
-5 2 -10 -2 -10 -15 0 -123 -190 -123 -215 0 -8 -4 -15 -10 -15 -5 0 -10 -6
-10 -14 0 -8 -9 -31 -20 -53 -18 -36 -52 -136 -71 -213 -14 -56 -24 -186 -24
-305 1 -123 12 -282 22 -297 3 -6 7 -22 9 -37 9 -67 15 -97 21 -111 6 -14 9
-36 16 -115 2 -17 5 -35 8 -40 4 -6 7 -30 7 -55 1 -25 3 -52 5 -60 21 -83 28
-88 46 -32 13 40 10 122 -8 212 -6 30 -14 69 -17 85 -3 17 -9 48 -14 70 -40
185 -42 542 -3 563 30 17 39 54 30 119 -8 52 -6 72 12 127 19 58 93 221 124
271 46 76 111 171 118 173 5 2 9 8 9 13 0 6 5 15 10 22 47 55 61 74 66 89 3 9
14 20 25 23 11 4 18 9 15 12 -7 7 19 33 33 33 6 0 10 3 9 8 -3 8 15 33 49 64
12 12 20 25 17 30 -3 4 -1 8 4 8 12 0 152 140 152 152 0 4 7 8 15 8 8 0 14 6
13 13 -2 6 2 11 9 10 6 -1 14 4 17 12 3 8 1 15 -4 15 -6 0 -10 5 -10 10 0 6 8
10 19 10 10 0 24 7 31 15 10 13 9 15 -11 15 -19 0 -21 -2 -9 -10z m-121 -124
c9 -11 9 -16 -1 -22 -7 -4 -10 -4 -6 1 4 4 3 14 -3 22 -6 7 -9 13 -6 13 2 0
10 -6 16 -14z"/>
<path d="M4490 9090 c-17 -5 -19 -8 -7 -9 29 -2 32 -2 44 -12 8 -7 11 -5 9 7
-3 22 -13 24 -46 14z"/>
<path d="M2660 9075 c-7 -8 -9 -15 -6 -15 4 0 14 7 22 15 9 8 11 15 6 15 -5 0
-15 -7 -22 -15z"/>
<path d="M4575 9080 c-4 -6 -4 -14 -1 -17 3 -4 6 0 6 7 0 9 5 7 15 -6 8 -10
15 -14 15 -8 0 19 -27 37 -35 24z"/>
<path d="M4640 9079 c0 -5 -6 -7 -12 -3 -10 6 -9 3 0 -8 8 -9 20 -14 28 -11
11 4 12 9 3 19 -14 17 -19 18 -19 3z"/>
<path d="M4861 9063 c6 -7 18 -13 26 -13 11 0 11 3 1 13 -7 8 -18 14 -25 14
-9 0 -10 -4 -2 -14z"/>
<path d="M2599 9052 c11 -8 10 -12 -5 -21 -18 -11 -18 -12 1 -9 23 4 27 29 5
35 -12 4 -12 3 -1 -5z"/>
<path d="M4852 9039 c2 -7 -6 -14 -17 -16 -44 -9 -51 -14 -34 -23 35 -20 109
-31 123 -18 18 17 8 46 -18 53 -11 4 -29 9 -39 12 -11 3 -16 0 -15 -8z"/>
<path d="M2490 9020 c8 -5 20 -10 25 -10 6 0 3 5 -5 10 -8 5 -19 10 -25 10 -5
0 -3 -5 5 -10z"/>
<path d="M3022 8996 c-19 -32 -25 -35 -54 -31 l-33 5 28 -11 c39 -15 73 1 80
38 7 39 3 39 -21 -1z"/>
<path d="M3882 8720 c-18 -4 -36 -11 -40 -15 -4 -3 7 -4 23 0 19 4 25 3 17 -3
-15 -10 -7 -18 41 -42 23 -11 29 -11 40 0 10 10 9 11 -2 5 -11 -6 -13 -4 -8 8
4 12 1 17 -11 18 -11 0 -12 2 -4 6 10 4 10 8 1 19 -6 8 -14 14 -18 13 -3 -1
-21 -5 -39 -9z"/>
<path d="M2840 8433 c-29 -4 -87 -19 -150 -40 -157 -51 -346 -197 -401 -308
-32 -64 -80 -145 -86 -145 -2 0 -1 5 3 11 3 6 -4 4 -18 -5 -24 -15 -59 -60
-101 -125 -12 -19 -29 -45 -37 -57 -31 -45 -90 -151 -90 -162 0 -7 9 -12 21
-12 11 0 18 -4 14 -10 -3 -5 -11 -7 -19 -4 -7 3 -13 -2 -13 -11 0 -8 4 -15 9
-15 9 0 6 -24 -11 -92 -5 -21 -7 -38 -4 -38 3 0 0 -7 -7 -15 -10 -13 -9 -15
11 -15 19 0 21 -2 9 -10 -8 -5 -10 -10 -5 -10 20 0 34 16 41 45 10 43 43 105
55 105 6 0 7 -5 3 -12 -5 -7 -3 -8 6 -3 10 6 10 11 -4 20 -15 12 -15 13 4 18
11 3 18 1 15 -3 -3 -4 4 -6 15 -3 19 5 20 6 3 19 -16 12 -15 13 11 14 25 0 27
2 15 17 -8 9 -9 14 -4 11 6 -3 16 0 23 8 7 8 9 14 5 14 -4 0 0 5 10 11 9 6 15
14 12 20 -4 5 1 9 9 9 9 0 15 3 14 8 -1 4 3 17 10 28 6 12 8 25 4 29 -4 5 -2
5 5 1 6 -3 14 -2 18 4 3 5 1 10 -5 10 -6 0 -8 5 -5 10 4 6 11 8 16 5 5 -3 6 2
2 11 -4 11 -2 15 4 11 11 -7 23 12 29 45 3 12 -2 15 -19 12 -12 -2 -7 1 11 8
32 11 47 32 15 22 -15 -5 -15 -4 -3 4 8 6 17 9 22 6 4 -2 17 9 29 26 21 27 49
44 34 20 -3 -5 -2 -10 4 -10 5 0 13 5 16 10 3 6 2 10 -3 10 -5 0 -12 9 -15 20
-3 11 -1 20 3 20 5 0 17 3 27 6 17 6 17 6 -1 -8 -16 -12 -16 -16 -5 -23 8 -5
11 -5 7 -1 -3 4 0 15 8 24 60 68 84 99 84 109 0 6 13 20 29 29 17 10 28 21 25
25 -2 4 9 10 25 14 16 3 36 14 43 23 9 11 10 14 1 8 -7 -4 -13 -3 -13 2 0 11
30 26 44 23 4 -1 53 13 108 30 l99 32 55 -19 c30 -10 54 -22 54 -27 0 -4 -4
-5 -10 -2 -17 11 -11 -1 15 -29 15 -16 32 -25 40 -22 8 3 15 1 15 -4 0 -5 -10
-10 -22 -12 -20 -3 -21 -4 -5 -19 9 -9 13 -19 10 -23 -4 -3 -1 -6 6 -6 15 0
42 -25 40 -37 -4 -23 4 -33 34 -42 18 -5 24 -10 13 -10 -15 -1 -10 -8 19 -31
42 -33 45 -35 45 -20 0 6 -7 10 -15 10 -8 0 -15 5 -15 10 0 7 7 7 21 0 11 -6
25 -9 32 -7 7 2 24 -2 40 -10 19 -10 33 -11 45 -4 16 10 16 10 -1 11 -12 0
-17 6 -15 18 2 9 9 16 15 15 14 -3 -21 69 -41 87 -9 7 -16 17 -16 23 0 17 -83
117 -157 189 -18 17 -33 36 -33 42 -1 38 -119 96 -180 89z m-73 -189 c-3 -3
-12 -4 -19 -1 -8 3 -5 6 6 6 11 1 17 -2 13 -5z m468 -272 c-3 -3 -11 0 -18 7
-9 10 -8 11 6 5 10 -3 15 -9 12 -12z"/>
<path d="M4447 8424 c-26 -14 -94 -74 -194 -171 -24 -24 -47 -43 -50 -43 -3 0
-32 -27 -65 -61 l-59 -61 28 -21 c37 -27 52 -42 33 -32 -8 5 -12 5 -8 0 15
-16 67 -13 73 4 2 9 14 22 25 29 19 12 20 11 11 -7 -6 -10 -16 -21 -23 -24 -7
-2 -10 -7 -7 -10 3 -4 23 10 44 31 21 20 35 30 30 22 -4 -8 2 -5 14 8 12 12
29 22 37 22 10 0 14 6 10 15 -3 8 -2 14 2 14 4 -1 12 -1 19 0 16 1 98 83 95
94 -1 5 2 6 8 2 5 -3 10 -1 10 5 0 6 4 9 9 5 5 -3 12 -1 15 4 8 12 41 7 41 -6
0 -6 16 -26 35 -45 19 -18 35 -35 35 -38 2 -20 18 -50 27 -50 5 0 8 -6 5 -13
-3 -7 6 -23 19 -36 13 -13 21 -28 17 -38 -3 -8 0 -19 8 -24 12 -7 12 -9 0 -9
-11 0 -9 -4 5 -15 14 -11 15 -14 4 -15 -10 0 -4 -9 15 -26 22 -19 26 -27 16
-31 -10 -4 -8 -9 10 -19 13 -7 18 -13 10 -14 -8 0 -4 -8 10 -21 13 -11 17 -17
9 -13 -13 7 -13 5 -1 -9 7 -9 17 -14 22 -12 9 6 35 -35 30 -50 -1 -5 3 -5 10
2 6 6 18 9 25 6 25 -9 15 6 -13 21 -32 17 -18 21 21 6 17 -6 26 -6 26 0 0 6
-9 10 -20 10 -11 0 -20 5 -20 10 0 18 26 11 54 -15 15 -14 30 -25 34 -25 4 0
-2 7 -12 15 -19 15 -19 15 3 39 l23 24 -22 7 c-18 6 -20 9 -9 16 11 7 10 9 -4
9 -10 0 -16 4 -12 9 6 10 -14 61 -25 61 -3 0 -14 24 -25 53 -10 28 -22 58 -28
65 -5 6 -6 12 -2 12 4 0 2 6 -4 13 -6 8 -8 17 -4 20 3 4 1 7 -5 7 -7 0 -12 7
-12 16 0 27 -60 128 -110 184 -27 30 -50 58 -50 63 0 4 -7 7 -15 7 -8 0 -15 4
-15 8 0 30 -116 42 -163 16z"/>
<path d="M1975 8334 c-27 -30 -25 -45 5 -37 21 6 21 6 25 41 3 28 -1 28 -30
-4z"/>
<path d="M1756 8147 c-70 -43 -96 -77 -58 -77 18 0 57 34 57 49 0 3 4 5 9 3 9
-3 26 16 26 31 0 10 -11 8 -34 -6z"/>
<path d="M1390 8081 c-13 -26 -16 -42 -10 -46 6 -4 8 -15 5 -25 -3 -10 -1 -21
5 -25 16 -10 12 -23 -15 -41 -23 -15 -27 -15 -59 5 l-35 22 -13 -23 c-7 -13
-11 -26 -10 -30 1 -5 -2 -8 -7 -8 -5 0 -11 -11 -13 -25 -5 -21 -3 -23 14 -14
11 6 22 8 26 5 3 -3 1 -6 -5 -6 -6 0 -13 -9 -16 -19 -4 -17 -2 -18 19 -9 13 6
21 15 18 19 -4 8 7 12 26 11 3 0 6 11 6 24 1 13 -2 24 -7 24 -5 0 -9 -4 -9 -8
0 -5 -7 -9 -15 -9 -20 0 -19 4 5 17 14 7 26 8 39 0 13 -7 22 -7 26 0 3 5 12
10 20 10 9 0 15 -19 18 -62 3 -35 7 -78 10 -96 2 -21 -2 -37 -11 -45 -12 -9
-16 -9 -19 1 -6 17 -33 15 -33 -3 0 -8 -4 -15 -8 -15 -5 0 -9 -7 -9 -15 0 -8
5 -15 11 -15 8 0 8 -2 0 -8 -20 -13 -25 -59 -9 -75 8 -9 11 -17 7 -19 -15 -6
9 -70 28 -75 10 -3 24 -18 30 -34 8 -17 20 -29 31 -29 10 0 23 -9 29 -20 8
-14 8 -20 0 -20 -6 0 -5 -11 4 -28 9 -18 11 -33 5 -43 -26 -42 16 -124 70
-134 42 -8 295 -7 315 1 13 5 17 4 12 -4 -5 -8 -2 -10 8 -6 29 11 15 31 -17
25 -5 -1 -6 3 -2 9 3 6 11 8 16 5 18 -12 29 5 18 27 -7 14 -8 23 -1 30 27 27
-86 85 -180 93 -24 2 -64 7 -89 10 -32 5 -58 2 -84 -9 -21 -9 -40 -15 -42 -13
-1 2 -4 17 -5 33 -2 27 -28 81 -28 57 0 -6 -9 -9 -20 -6 -23 6 -39 25 -19 22
27 -3 40 1 34 11 -3 5 9 19 27 30 18 11 30 20 25 20 -4 0 0 11 9 25 9 14 13
25 9 25 -4 0 -2 7 5 15 10 13 9 19 -6 36 -17 19 -18 22 -2 50 10 16 13 29 9
29 -5 0 -11 9 -14 21 -3 12 -10 18 -16 15 -13 -8 -34 31 -27 50 3 8 1 14 -4
14 -16 0 -11 46 5 60 9 7 13 20 10 28 -4 12 -3 12 9 3 12 -10 16 -8 21 9 5 17
10 19 21 9 11 -9 14 -8 14 6 0 17 -11 17 -70 0 -24 -7 -41 43 -30 90 7 30 5
47 -7 72 -8 18 -19 33 -24 33 -5 0 -18 -18 -29 -39z m479 -832 c-22 -13 -31
-11 -17 5 7 8 17 12 22 9 4 -3 2 -9 -5 -14z"/>
<path d="M4081 8056 c-10 -12 -8 -13 8 -9 12 3 18 9 15 14 -7 12 -10 11 -23
-5z"/>
<path d="M1774 8042 c4 -7 2 -12 -3 -12 -6 0 -11 -9 -11 -19 0 -11 -5 -23 -10
-26 -6 -4 -8 -10 -5 -15 3 -5 -2 -16 -11 -24 -13 -13 -14 -19 -4 -32 11 -12
10 -13 -5 -8 -12 5 -16 4 -12 -3 4 -6 -4 -18 -18 -27 -25 -16 -35 -56 -14 -56
5 0 7 5 4 10 -3 6 -1 10 5 10 6 0 8 5 5 11 -4 6 2 5 14 -3 13 -8 19 -19 15
-30 -3 -12 0 -18 10 -18 9 0 16 5 16 11 0 5 5 7 11 3 6 -3 4 6 -4 22 -16 30
-8 73 19 105 17 19 18 95 2 105 -7 4 -8 3 -4 -4z"/>
<path d="M3659 7976 c-2 -2 -42 -6 -89 -10 -120 -8 -179 -17 -225 -32 -22 -8
-29 -12 -15 -9 24 4 24 3 6 -10 -11 -8 -23 -15 -28 -15 -4 0 -8 -5 -8 -11 0
-5 4 -7 10 -4 6 3 7 -1 4 -9 -4 -10 -1 -16 7 -16 8 0 5 -6 -7 -15 -19 -14 -19
-14 1 -16 11 -1 26 -2 32 -2 7 1 10 -3 7 -8 -3 -5 9 -9 26 -9 22 0 29 -4 24
-12 -5 -8 0 -7 11 2 11 9 16 10 11 3 -5 -9 1 -13 19 -13 16 0 24 4 19 11 -4 8
-1 8 12 2 11 -5 33 -9 49 -8 17 1 50 3 75 4 33 1 41 4 30 11 -20 13 -8 13 25
0 24 -9 26 -8 21 7 -6 14 -5 16 5 6 15 -15 33 -17 24 -3 -3 6 1 7 10 4 8 -4
23 0 32 7 14 12 16 12 9 0 -6 -9 -4 -12 5 -9 8 3 14 10 14 16 0 14 55 45 63
37 3 -3 0 -5 -7 -5 -7 0 -9 -5 -6 -10 4 -6 3 -10 -2 -9 -4 1 -17 0 -28 -1 -16
-1 -14 -4 10 -15 19 -8 36 -10 46 -4 9 4 19 5 23 2 3 -3 6 -1 6 5 0 16 -22 15
-40 0 -8 -7 -6 -3 5 10 11 14 26 21 37 19 10 -3 20 -2 23 2 2 4 -2 8 -10 9 -8
1 -21 3 -28 4 -23 3 -15 28 9 28 28 0 41 18 19 27 -10 3 -21 0 -26 -8 -6 -10
-9 -10 -9 -1 0 25 2 27 18 24 15 -2 15 -1 -1 8 -16 11 -209 24 -218 16z"/>
<path d="M3175 7950 c3 -5 10 -10 16 -10 5 0 9 5 9 10 0 6 -7 10 -16 10 -8 0
-12 -4 -9 -10z"/>
<path d="M3206 7935 c-19 -14 -18 -15 10 -15 20 0 25 3 15 9 -11 7 -11 9 0 14
8 3 10 6 4 6 -5 0 -19 -6 -29 -14z"/>
<path d="M3255 7940 c-3 -5 1 -10 10 -10 9 0 13 5 10 10 -3 6 -8 10 -10 10 -2
0 -7 -4 -10 -10z"/>
<path d="M3150 7936 c0 -2 7 -6 15 -10 8 -3 15 -1 15 4 0 6 -7 10 -15 10 -8 0
-15 -2 -15 -4z"/>
<path d="M3922 7894 c10 -10 20 -16 22 -13 3 3 -5 11 -17 18 -21 13 -21 12 -5
-5z"/>
<path d="M5229 7852 c11 -8 11 -10 0 -15 -10 -4 -8 -6 4 -6 21 -1 18 21 -4 27
-12 3 -12 2 0 -6z"/>
<path d="M1712 7765 c-21 -45 -9 -61 22 -30 13 13 15 13 19 -3 3 -11 5 -8 6 9
1 23 -14 49 -29 49 -4 0 -12 -11 -18 -25z"/>
<path d="M1729 7718 c-5 -18 -6 -38 -1 -34 7 8 12 36 6 36 -2 0 -4 -1 -5 -2z"/>
<path d="M1715 7616 c-11 -12 -32 -40 -47 -63 -26 -40 -27 -42 -11 -75 9 -18
27 -43 39 -54 13 -12 21 -25 19 -28 -3 -3 2 0 11 7 11 10 16 40 18 114 2 55 1
105 -3 110 -3 6 -14 1 -26 -11z"/>
<path d="M4971 7586 c-8 -10 -9 -16 -1 -21 6 -3 8 -10 5 -15 -3 -5 4 -7 16 -5
17 4 20 2 11 -7 -17 -17 -15 -28 6 -29 9 0 12 -3 6 -5 -7 -3 -10 -14 -7 -24 3
-11 9 -18 13 -15 5 3 6 -4 3 -15 -4 -16 0 -20 23 -21 20 0 24 -3 13 -7 -13 -5
-14 -13 -8 -30 5 -13 14 -20 20 -16 7 4 7 -1 -1 -16 -6 -12 -9 -24 -6 -28 3
-3 6 -1 6 5 0 5 6 10 14 10 8 0 12 -6 9 -14 -3 -7 -9 -13 -13 -13 -16 0 -3
-34 16 -41 10 -4 14 -8 8 -8 -6 -1 -11 -8 -11 -16 0 -8 4 -12 9 -9 4 3 8 0 8
-6 0 -6 5 -8 10 -5 6 3 10 1 10 -4 0 -6 10 -11 23 -12 12 0 16 -3 10 -6 -7 -2
-13 -9 -13 -14 0 -4 6 -6 14 -3 8 3 17 0 22 -7 5 -8 3 -10 -7 -5 -8 4 -3 -1
11 -12 13 -12 27 -18 30 -14 3 4 10 8 15 8 6 1 25 5 44 9 l33 7 -7 -43 c-4
-23 -9 -58 -11 -78 -5 -59 -63 -86 -65 -31 -2 45 -3 50 -11 50 -5 0 -13 0 -19
0 -5 0 -7 -4 -4 -10 3 -5 2 -10 -3 -10 -5 0 -8 -12 -7 -27 1 -16 -4 -45 -11
-66 -7 -20 -13 -39 -14 -42 0 -3 0 -6 -1 -7 0 -2 -2 -20 -3 -41 -2 -30 1 -37
13 -32 9 4 5 -4 -7 -16 -19 -17 -21 -23 -10 -30 11 -7 10 -11 -2 -19 -12 -8
-12 -10 -1 -10 10 0 11 -3 2 -13 -8 -10 -7 -14 4 -14 12 0 25 17 29 37 1 3 5
11 10 19 7 11 4 13 -12 9 -12 -4 -22 -2 -22 3 0 5 7 9 15 9 8 0 24 5 34 12 15
9 24 8 45 -5 l26 -17 -19 -33 c-10 -18 -22 -49 -26 -68 -4 -19 -13 -41 -20
-49 -20 -23 -82 -184 -90 -232 -13 -85 -36 -144 -66 -176 -21 -23 -34 -30 -39
-22 -4 6 -16 13 -26 15 -10 2 -21 4 -24 4 -3 1 2 5 10 11 8 5 11 12 7 16 -4 4
-15 0 -24 -8 -10 -8 -31 -19 -48 -22 -28 -7 -27 -5 26 51 30 32 68 76 84 98
16 22 39 49 50 60 31 31 55 72 55 95 0 12 -7 20 -17 20 -16 0 -16 2 -3 11 12
9 11 10 -7 6 -22 -5 -32 6 -15 16 4 2 2 2 -5 1 -6 -2 -17 4 -23 12 -21 24 -63
16 -89 -18 -13 -16 -24 -36 -24 -44 0 -7 -4 -11 -9 -8 -4 3 -11 -2 -15 -12 -3
-9 -20 -30 -36 -45 -17 -16 -26 -29 -22 -29 4 0 -10 -14 -31 -30 -22 -17 -47
-37 -57 -45 -9 -8 -22 -15 -27 -15 -5 0 -14 -9 -20 -20 -6 -11 -18 -20 -26
-20 -8 0 -12 -4 -9 -10 3 -5 -2 -10 -12 -11 -10 0 -3 -6 17 -14 31 -12 27 -20
-9 -16 -7 2 -10 -2 -6 -8 9 -15 -18 -14 -34 2 -11 9 -10 7 0 -10 8 -13 19 -23
26 -23 7 0 13 -4 13 -10 0 -5 -7 -7 -15 -4 -8 4 -15 2 -15 -4 0 -6 6 -13 13
-15 8 -4 6 -6 -4 -6 -9 -1 -16 -7 -16 -15 0 -14 74 -15 119 0 20 6 19 4 -7
-18 -40 -34 -91 -59 -100 -50 -5 4 -5 -1 -2 -10 4 -12 2 -15 -9 -11 -8 3 -14
-1 -14 -8 0 -8 -13 -20 -30 -27 -16 -8 -30 -20 -30 -28 0 -8 -6 -14 -14 -14
-7 0 -43 -20 -79 -45 -37 -25 -71 -45 -77 -45 -14 0 -94 -43 -98 -52 -2 -5
-10 -8 -18 -8 -24 0 -15 -15 19 -30 31 -14 31 -15 7 -18 -51 -6 -56 -13 -21
-28 33 -14 33 -15 15 -29 -19 -14 -19 -14 1 -29 20 -15 20 -15 -5 -16 -14 -1
-19 -4 -12 -7 8 -3 -1 -18 -28 -43 -23 -21 -43 -51 -46 -68 -4 -17 -17 -38
-30 -47 -21 -14 -27 -14 -52 -1 -24 12 -31 12 -55 0 -15 -8 -27 -19 -27 -24 0
-6 -5 -10 -11 -10 -5 0 -7 4 -4 10 3 6 -1 7 -10 4 -9 -4 -14 -13 -11 -20 5
-13 -6 -18 -26 -15 -5 0 -9 -3 -9 -9 -1 -5 -2 -16 -3 -22 -1 -7 -9 -12 -18
-10 -9 1 -23 -7 -31 -18 -7 -11 -17 -17 -20 -13 -4 3 -7 1 -7 -5 0 -7 -12 -10
-30 -8 -18 2 -27 -1 -23 -7 3 -5 0 -8 -7 -5 -24 8 -21 24 7 38 16 8 35 15 43
16 8 0 21 2 28 3 7 0 10 6 7 11 -3 6 0 10 8 10 14 0 63 50 60 62 -2 4 12 17
30 30 81 58 89 88 24 88 -24 0 -48 -5 -55 -12 -9 -9 -16 -7 -31 6 -11 10 -25
15 -32 10 -8 -5 -10 -3 -4 6 6 10 4 12 -10 7 -10 -4 -37 -12 -61 -18 -25 -6
-46 -15 -49 -19 -3 -4 4 -34 15 -66 l19 -59 -22 -17 c-28 -23 -33 -22 -70 4
-38 27 -47 37 -47 61 0 10 -7 25 -15 33 -15 16 -21 54 -7 54 4 0 5 26 3 57 -3
52 -1 59 24 79 28 22 28 22 6 33 -26 14 -27 38 -3 45 10 4 29 24 41 46 12 22
25 40 29 40 4 0 20 11 36 25 16 14 35 25 42 25 7 0 16 5 20 12 4 6 3 8 -4 4
-28 -17 -203 -27 -221 -12 -8 6 -16 10 -18 8 -2 -2 -24 0 -50 4 -57 8 -79 11
-118 13 -26 2 -27 3 -10 10 11 5 38 11 60 14 22 2 60 9 85 15 25 6 83 13 130
17 47 3 105 8 130 12 25 3 61 7 80 9 70 5 166 15 205 20 22 3 48 5 58 5 10 0
31 5 45 11 15 6 38 10 52 9 16 -1 31 8 43 24 l18 26 -35 -3 c-20 -1 -36 -6
-36 -10 0 -4 -7 -8 -16 -8 -9 0 -12 5 -8 12 4 7 3 8 -4 4 -6 -4 -8 -14 -5 -22
5 -13 1 -15 -18 -9 -13 4 -26 11 -29 15 -3 4 -16 6 -30 4 -57 -7 -149 -14
-205 -15 -33 -1 -68 -7 -79 -12 -10 -5 -16 -5 -13 0 6 10 -220 8 -253 -2 -17
-5 -21 -4 -15 6 6 11 5 12 -6 2 -16 -16 -33 -17 -23 -1 5 7 3 8 -7 2 -15 -9
-127 -6 -143 3 -5 4 -6 2 -3 -3 6 -10 -232 -12 -249 -2 -5 3 -40 5 -79 6 -38
0 -88 4 -110 9 -22 5 -65 8 -97 8 -31 0 -54 4 -51 8 3 4 -10 7 -29 5 -44 -4
-189 12 -184 20 2 4 -6 8 -17 9 -41 3 -112 20 -142 34 -16 7 -39 14 -50 14
-11 1 -27 4 -35 8 -8 3 -40 13 -70 21 -30 8 -80 33 -109 56 -30 22 -61 40 -68
40 -7 0 -12 3 -12 8 3 18 -2 22 -20 12 -13 -7 -22 -7 -26 0 -3 5 1 10 11 10
13 0 14 3 4 15 -7 8 -21 15 -32 15 -10 0 -17 4 -14 9 6 10 -43 25 -52 16 -3
-3 2 -5 10 -5 9 0 18 -6 21 -14 3 -8 16 -16 29 -19 l23 -4 -22 -2 c-13 0 -23
-5 -23 -11 0 -5 -4 -10 -9 -10 -4 0 -8 10 -7 21 1 19 -4 22 -46 21 -27 0 -50
-1 -53 -1 -8 -1 52 -108 78 -139 12 -14 43 -48 69 -76 32 -34 43 -53 35 -58
-7 -4 -13 -12 -13 -18 -1 -5 -3 -11 -4 -12 -8 -8 -6 -78 2 -78 5 0 6 -4 3 -10
-3 -5 -2 -18 4 -28 5 -10 12 -39 15 -64 5 -43 3 -47 -17 -50 -12 -2 -21 -9
-19 -16 1 -7 -8 -12 -22 -12 -14 0 -28 -5 -31 -10 -4 -6 -11 -8 -16 -5 -5 4
-9 1 -9 -5 0 -7 -6 -5 -15 4 -9 8 -22 13 -29 10 -8 -3 -22 10 -35 32 -16 27
-25 34 -33 26 -13 -13 8 -46 23 -36 5 3 9 1 9 -4 0 -6 -6 -12 -14 -15 -9 -4
-12 -14 -9 -27 4 -13 0 -25 -8 -30 -10 -7 -9 -16 7 -47 10 -21 24 -42 29 -46
6 -6 6 -10 -2 -14 -17 -6 -17 -23 0 -23 7 0 18 -9 25 -20 7 -11 22 -20 35 -20
18 0 19 -2 7 -11 -11 -8 -8 -9 15 -5 24 5 26 4 13 -4 -16 -10 -16 -12 -1 -30
10 -11 40 -27 68 -36 27 -9 54 -19 60 -22 5 -3 18 -7 29 -7 10 -1 26 -11 35
-23 15 -21 181 -82 256 -96 17 -2 41 -8 55 -11 14 -4 36 -9 50 -12 14 -3 30
-10 36 -14 6 -5 14 -6 17 -2 13 12 7 23 -13 23 -12 0 -35 7 -51 16 -17 8 -43
17 -59 19 -31 4 -74 24 -52 25 27 0 107 -24 114 -34 4 -6 8 -8 8 -4 0 4 15 2
33 -3 101 -32 157 -44 194 -44 24 0 43 -3 43 -8 0 -4 12 -7 28 -6 15 1 40 -3
55 -10 15 -6 31 -10 35 -9 16 3 61 -15 56 -23 -3 -5 4 -9 15 -9 11 0 23 -5 26
-10 4 -6 20 -9 37 -6 16 2 46 -1 66 -8 58 -20 92 -27 92 -18 0 8 -8 11 -173
74 -59 22 -105 43 -103 46 7 7 87 -20 251 -85 165 -64 208 -94 82 -57 -14 5
-18 1 -15 -13 2 -10 11 -17 21 -17 21 2 22 -12 2 -20 -8 -3 -15 -13 -15 -21 0
-9 -4 -14 -8 -11 -5 3 -20 -1 -34 -8 -14 -8 -46 -16 -70 -19 -142 -18 -208
-44 -208 -85 0 -9 -3 -13 -6 -9 -9 9 -85 -65 -80 -79 2 -6 0 -16 -5 -21 -19
-19 34 -41 92 -39 30 0 59 5 66 9 6 4 19 4 27 1 10 -4 25 1 35 10 14 13 28 16
55 11 20 -4 36 -11 36 -17 0 -5 -4 -7 -9 -4 -10 7 -59 -30 -51 -38 3 -3 24 -6
45 -7 22 -1 46 -7 52 -12 22 -16 -4 -45 -45 -52 -21 -3 -51 -14 -66 -25 l-28
-18 23 -7 c34 -11 209 -12 209 -1 0 4 6 6 13 3 7 -3 21 1 31 9 11 7 24 10 30
6 19 -12 75 -9 80 5 3 7 16 13 28 13 13 0 39 0 58 0 54 0 75 -6 72 -21 -1 -9
3 -8 11 3 8 10 17 15 20 12 9 -9 68 -11 73 -2 3 4 22 8 42 8 28 0 33 -3 22
-10 -16 -11 55 -6 99 6 19 6 22 4 16 -7 -7 -12 -6 -12 7 -1 18 14 63 2 70 -19
6 -17 46 -6 91 25 20 14 37 23 37 21 0 -6 58 34 87 59 12 11 20 23 17 27 -2 4
4 10 15 14 44 14 28 65 -18 58 -22 -3 -81 30 -81 47 0 4 9 10 20 13 14 4 20 0
20 -11 0 -15 2 -15 10 -2 5 8 10 12 10 7 0 -4 13 -1 30 8 16 8 31 15 32 14 11
-3 59 25 86 50 18 17 36 31 39 31 2 0 15 8 28 18 17 13 20 23 14 34 -9 17 -27
15 -113 -12 -32 -10 -50 -5 -40 13 4 7 -1 4 -11 -5 -14 -13 -22 -14 -36 -5
-13 8 -21 8 -33 -2 -9 -7 -13 -17 -10 -22 3 -5 -2 -9 -10 -9 -17 0 -17 -20 -1
-32 6 -5 5 -8 -2 -8 -7 0 -10 -6 -7 -14 3 -7 -3 -16 -13 -20 -9 -4 -14 -4 -11
0 11 10 -20 36 -33 28 -8 -5 -9 -3 -3 7 5 8 10 31 11 51 2 30 13 47 58 92 30
29 55 59 55 65 0 6 3 10 8 9 14 -3 63 22 58 30 -2 4 4 8 15 8 10 0 19 -4 19
-8 0 -4 -7 -8 -15 -8 -18 0 -20 -20 -2 -20 6 0 4 -5 -7 -11 -25 -15 -50 -43
-54 -60 -2 -8 -10 -21 -18 -31 -10 -11 -12 -18 -5 -23 16 -9 51 3 89 32 17 13
36 22 41 18 12 -7 52 35 45 46 -3 5 7 21 22 36 14 16 23 22 19 15 -6 -11 -3
-12 14 -2 12 6 18 16 15 22 -5 7 -2 9 9 5 9 -3 24 2 34 11 11 9 13 13 6 8 -10
-6 -12 -4 -7 8 3 9 15 16 25 16 12 0 19 7 19 19 0 14 6 18 23 15 12 -2 17 -2
10 2 -7 3 -9 12 -6 20 6 16 39 19 48 4 3 -5 10 -10 15 -10 13 0 160 148 160
161 0 5 4 8 9 5 4 -3 7 6 5 19 -1 16 3 25 11 25 8 0 17 5 21 11 7 12 3 11 -63
-7 -13 -4 -23 -2 -23 2 1 14 67 84 79 84 6 0 11 5 11 10 0 6 6 10 13 10 8 0
24 12 38 27 18 20 20 25 7 20 -10 -4 -18 -3 -18 2 0 5 12 12 27 16 31 7 75 42
122 97 30 36 33 41 18 50 -23 13 -21 27 6 38 17 7 18 9 5 9 -23 1 -23 4 6 87
35 103 70 176 98 204 13 14 32 43 42 65 10 22 27 49 37 60 10 11 27 41 38 68
11 26 27 50 36 53 8 3 12 10 9 15 -3 5 -1 9 4 9 6 0 22 23 37 51 14 28 35 61
46 72 10 11 19 28 19 36 0 9 14 31 30 50 17 18 30 37 30 41 0 4 18 15 40 25
22 10 40 24 40 32 0 7 5 13 11 13 6 0 9 7 6 15 -4 8 -2 17 3 20 13 8 -7 56
-31 73 -11 8 -18 20 -15 27 2 7 -2 21 -9 32 -22 28 -19 79 5 96 17 12 19 19
11 40 -6 14 -16 29 -24 34 -25 15 -36 45 -25 72 15 36 18 71 7 71 -5 0 -9 9
-9 19 0 11 -5 23 -10 26 -6 4 -7 11 -4 17 5 7 1 9 -9 5 -10 -3 -17 -3 -17 2 0
14 -83 -4 -130 -28 -25 -13 -42 -20 -38 -16 4 5 3 14 -3 21 -8 10 -16 11 -30
3 -17 -9 -19 -7 -15 13 3 18 -1 24 -15 24 -10 0 -19 0 -19 -1 0 0 6 -23 14
-52 l14 -52 -42 -40 c-62 -60 -68 -69 -53 -74 7 -3 2 -6 -9 -6 -23 -1 -49 31
-60 73 -3 14 -10 24 -14 21 -5 -3 -6 5 -2 17 4 16 2 20 -10 15 -12 -4 -14 -1
-11 14 6 22 -13 66 -37 87 -13 12 -13 13 0 6 13 -7 13 -5 1 9 -7 9 -10 17 -5
17 5 1 -1 9 -13 19 -12 10 -19 22 -15 26 4 3 0 5 -8 3 -8 -1 -14 3 -12 10 3
16 -3 15 -17 -2z m214 -346 c3 -5 -1 -10 -9 -10 -8 0 -18 5 -21 10 -3 6 1 10
9 10 8 0 18 -4 21 -10z m-130 -630 c3 -5 -1 -10 -9 -10 -8 0 -18 5 -21 10 -3
6 1 10 9 10 8 0 18 -4 21 -10z m-40 -10 c3 -5 1 -10 -4 -10 -6 0 -11 5 -11 10
0 6 2 10 4 10 3 0 8 -4 11 -10z m70 -38 c-3 -3 -11 0 -18 7 -9 10 -8 11 6 5
10 -3 15 -9 12 -12z m-3070 -130 c-3 -3 -11 0 -18 7 -9 10 -8 11 6 5 10 -3 15
-9 12 -12z m2907 -310 c0 -27 -4 -65 -10 -83 -23 -75 -24 -92 -7 -85 9 3 13 2
10 -4 -3 -6 -12 -10 -19 -10 -8 0 -19 -15 -26 -32 -39 -107 -54 -129 -102
-156 -26 -15 -48 -30 -48 -34 0 -5 -6 -8 -14 -8 -8 0 -18 -9 -21 -20 -4 -12
-16 -20 -28 -21 -21 0 -21 -1 -3 -8 14 -5 16 -10 8 -15 -7 -4 -16 -5 -21 -1
-5 3 -12 -4 -16 -14 -3 -11 -15 -23 -26 -26 -10 -4 -19 -11 -19 -16 0 -5 -6
-9 -12 -8 -21 3 -52 -12 -70 -35 -13 -17 -19 -18 -29 -9 -10 10 -8 16 9 31 12
11 22 28 22 40 0 15 9 21 35 26 22 4 42 17 55 35 14 21 26 28 43 25 12 -2 17
-2 10 2 -8 4 -4 14 15 31 20 18 34 23 55 19 17 -4 26 -2 22 4 -3 6 0 10 7 10
8 0 14 9 15 21 2 18 0 19 -15 7 -12 -10 -11 -4 5 22 11 19 28 73 37 120 23
121 54 200 88 233 38 36 50 26 50 -41z m-732 48 c0 -5 -2 -10 -4 -10 -3 0 -8
5 -11 10 -3 6 -1 10 4 10 6 0 11 -4 11 -10z m-1635 -42 c6 -3 37 -11 70 -18
33 -6 80 -18 105 -25 25 -8 61 -16 80 -19 142 -17 278 -39 292 -47 10 -5 26
-9 35 -10 13 0 11 -3 -7 -10 -14 -6 -33 -8 -42 -5 -10 2 -21 -2 -26 -9 -4 -8
-29 -15 -57 -17 l-50 -3 40 -21 c49 -24 54 -41 14 -42 -16 0 -29 3 -29 7 0 7
-107 43 -140 47 -58 7 -280 91 -280 106 0 5 -13 14 -30 19 -28 10 -40 36 -24
52 8 7 34 5 49 -5z m765 -109 c0 -5 -11 -9 -24 -9 -13 0 -31 -3 -39 -6 -8 -3
-17 2 -20 10 -5 12 2 15 38 14 25 0 45 -4 45 -9z m-924 -105 c-10 -7 -15 -17
-12 -22 3 -5 -8 -21 -23 -36 -25 -24 -32 -26 -50 -17 -12 7 -21 20 -21 31 0
10 -4 22 -10 25 -18 11 -10 30 22 52 l31 22 40 -21 c38 -19 39 -21 23 -34z
m553 -10 c3 -4 -5 -4 -19 -1 -14 4 -31 7 -37 7 -7 0 -13 4 -13 9 0 10 58 -3
69 -15z m1587 -88 c3 -13 4 -38 2 -57 -3 -30 -6 -34 -33 -34 -29 0 -30 2 -33
46 -3 39 0 47 20 57 33 16 37 15 44 -12z m-1026 -20 c0 -2 -8 -10 -17 -17 -16
-13 -17 -12 -4 4 13 16 21 21 21 13z m-55 -34 c-2 -3 -12 -1 -22 2 -15 6 -15
9 -3 16 13 8 35 -8 25 -18z m-62 2 c-3 -8 -12 -13 -20 -10 -8 3 -18 6 -21 7
-8 0 29 17 40 18 4 1 5 -6 1 -15z m-24 -29 c17 5 20 3 14 -11 -5 -14 -3 -15
15 -5 16 9 24 8 36 -4 8 -8 31 -16 50 -17 20 -2 36 -6 36 -10 0 -5 13 -8 28
-8 15 0 33 -5 40 -12 7 -7 12 -8 12 -3 0 5 8 -2 17 -15 10 -14 18 -28 18 -32
0 -4 9 -14 20 -23 11 -9 13 -13 5 -9 -12 6 -13 4 -2 -7 6 -7 12 -16 12 -20 0
-12 -52 -21 -63 -10 -6 6 -19 6 -33 1 -13 -5 -24 -7 -24 -3 0 4 -6 -2 -14 -13
-8 -10 -18 -19 -23 -19 -20 -1 -73 -37 -73 -49 0 -8 -6 -16 -12 -19 -7 -2 5
-4 28 -4 52 0 88 -19 79 -41 -4 -9 -8 -23 -8 -30 0 -18 -41 -10 -110 21 -28
13 -117 48 -197 77 -80 29 -147 55 -150 57 -2 2 1 13 8 24 10 16 10 24 1 35
-9 12 -6 14 21 14 28 0 32 3 27 21 -4 15 1 22 16 28 12 5 21 12 20 17 -1 5 4
8 12 6 9 -2 12 4 8 17 -4 15 1 22 21 27 14 3 26 11 26 18 0 6 4 5 10 -4 7 -12
12 -12 34 -1 21 12 28 12 43 0 15 -12 16 -12 10 5 -6 16 -5 17 7 7 8 -7 24
-10 35 -6z m-580 -22 c38 -22 40 -43 4 -43 -21 0 -24 -3 -14 -9 12 -8 12 -12
2 -25 -8 -9 -21 -16 -30 -16 -9 0 -31 -9 -49 -20 l-33 -20 -29 20 c-15 11 -33
20 -39 20 -35 0 8 43 82 81 63 33 67 34 106 12z m191 -203 c0 -5 -4 -10 -10
-10 -5 0 -10 5 -10 10 0 6 5 10 10 10 6 0 10 -4 10 -10z m35 0 c3 -5 -1 -10
-9 -10 -9 0 -16 5 -16 10 0 6 4 10 9 10 6 0 13 -4 16 -10z m1442 -46 c2 -6
-14 -16 -37 -22 -44 -11 -52 -2 -17 23 24 17 48 16 54 -1z m-77 -59 c-7 -8
-17 -15 -23 -15 -6 0 -2 7 9 15 25 19 30 19 14 0z m-924 -73 c-10 -2 -22 0
-28 6 -6 6 0 7 19 4 21 -5 23 -7 9 -10z m339 -12 c-3 -5 -14 -10 -23 -10 -15
0 -15 2 -2 10 20 13 33 13 25 0z m-458 -132 c-3 -8 -6 -5 -6 6 -1 11 2 17 5
13 3 -3 4 -12 1 -19z m513 -88 c24 -12 45 -33 56 -55 15 -32 15 -37 0 -60 -29
-43 -51 -48 -104 -24 -26 13 -59 22 -73 20 -19 -1 -31 6 -43 24 -20 30 -12 50
35 89 37 31 76 33 129 6z m-476 -90 c30 -11 33 -35 9 -62 -19 -21 -46 -23 -92
-7 l-33 11 34 34 c36 36 44 39 82 24z"/>
<path d="M1940 7352 c0 -18 27 -38 37 -28 9 9 -8 26 -19 20 -6 -4 -8 -2 -4 4
3 6 2 13 -4 17 -5 3 -10 -3 -10 -13z"/>
<path d="M4860 7260 c0 -5 5 -10 10 -10 6 0 10 5 10 10 0 6 -4 10 -10 10 -5 0
-10 -4 -10 -10z"/>
<path d="M1925 7210 c3 -5 14 -10 23 -10 15 0 15 2 2 10 -20 13 -33 13 -25 0z"/>
<path d="M1902 7179 c-1 -16 3 -29 8 -29 6 0 8 -5 4 -11 -4 -7 -2 -10 5 -8 7
3 13 9 13 14 0 6 4 15 9 21 6 7 5 15 -3 21 -29 22 -34 21 -36 -8z"/>
<path d="M1897 7098 c9 -10 20 -18 25 -18 4 0 8 8 8 18 0 12 -8 18 -25 18 -23
0 -23 -1 -8 -18z"/>
<path d="M4790 7085 c0 -9 5 -15 11 -13 6 2 11 8 11 13 0 5 -5 11 -11 13 -6 2
-11 -4 -11 -13z"/>
<path d="M1890 7001 c0 -5 -7 -17 -16 -25 -8 -9 -11 -16 -5 -16 6 0 11 -4 11
-10 0 -15 -19 -12 -36 5 -9 8 -32 15 -52 16 -20 0 -47 2 -59 5 -26 4 -126 -30
-165 -58 -41 -28 -74 -78 -58 -88 9 -5 9 -9 1 -14 -6 -4 -11 -12 -11 -18 0 -6
7 -5 17 3 15 13 15 12 5 -7 -10 -19 -8 -24 11 -36 38 -24 85 -20 176 17 49 19
95 35 103 35 8 0 24 9 35 19 12 11 22 19 24 17 2 -1 13 6 23 17 15 15 16 19 4
14 -11 -4 -18 1 -21 14 -4 16 1 21 23 25 23 5 29 12 32 40 3 23 0 34 -9 34 -7
0 -13 5 -13 10 0 6 -4 10 -10 10 -5 0 -10 -4 -10 -9z m-23 -117 c-3 -3 -12 -4
-19 -1 -8 3 -5 6 6 6 11 1 17 -2 13 -5z"/>
<path d="M5868 6973 c-21 -9 -38 -20 -38 -24 0 -5 -5 -9 -11 -9 -16 0 -79 -57
-114 -104 -56 -75 -83 -165 -77 -253 3 -39 5 -42 30 -40 25 2 27 6 30 47 4 72
10 113 20 140 18 44 85 120 147 165 22 17 47 37 55 46 8 9 22 18 30 22 11 4
10 6 -5 7 -17 2 -16 3 5 10 24 8 24 8 -5 8 -16 0 -47 -7 -67 -15z"/>
<path d="M6080 6980 c0 -5 -8 -10 -17 -11 -15 0 -15 -2 -3 -7 19 -9 24 -32 8
-32 -7 0 -5 -5 5 -11 9 -5 17 -17 17 -25 0 -8 3 -13 8 -11 4 3 7 -8 7 -24 0
-16 -2 -29 -5 -29 -3 0 -6 -17 -7 -37 -1 -21 -9 -65 -18 -98 -10 -33 -18 -67
-19 -76 -2 -14 -10 -27 -44 -64 -7 -8 -10 -15 -5 -15 4 0 0 -5 -10 -11 -9 -6
-15 -14 -12 -20 4 -5 -3 -9 -13 -9 -24 0 -49 -26 -31 -32 6 -2 -1 -12 -17 -23
-24 -15 -27 -16 -15 -2 20 25 -3 21 -25 -5 -12 -14 -14 -18 -4 -13 8 4 12 4 7
0 -4 -5 -17 -10 -29 -12 -11 -2 -29 -12 -38 -23 -10 -11 -25 -20 -34 -20 -36
0 -5 -46 36 -54 26 -5 30 -9 18 -16 -8 -5 -10 -10 -4 -10 6 0 17 7 24 15 7 8
19 15 27 15 8 0 11 4 8 10 -3 6 1 7 9 4 19 -7 119 73 109 88 -3 7 -1 8 5 4 11
-6 33 12 70 58 7 9 10 21 6 28 -5 7 -3 8 5 4 8 -5 14 0 18 13 3 12 9 21 14 21
14 0 11 28 -3 33 -8 3 -6 6 5 6 15 1 22 12 18 34 0 4 3 7 8 7 5 0 11 9 14 20
3 11 1 20 -4 20 -13 0 -7 23 10 36 9 7 12 20 8 34 -3 13 -2 32 4 42 7 13 6 18
-3 18 -8 0 -7 4 4 10 9 6 15 18 13 28 -2 9 -4 20 -4 25 -1 4 -9 7 -18 8 -15 0
-14 2 4 11 l22 11 -22 19 c-12 11 -16 17 -9 13 21 -11 13 6 -14 32 -16 15 -34
23 -45 20 -11 -3 -19 -1 -19 4 0 5 -4 9 -10 9 -5 0 -10 -4 -10 -10z m-269
-635 c1 -17 -18 -17 -25 0 -4 11 -1 15 10 13 8 -2 15 -7 15 -13z m69 -9 c0 -2
-9 -6 -20 -9 -11 -3 -18 -1 -14 4 5 9 34 13 34 5z"/>
<path d="M3678 6929 c-27 -17 -48 -35 -48 -39 0 -4 -13 -13 -30 -20 -16 -7
-30 -17 -30 -22 0 -5 5 -6 12 -2 7 4 8 3 4 -5 -4 -6 -11 -9 -15 -7 -4 3 -25
-1 -47 -9 -44 -16 -118 -20 -109 -6 3 5 -11 23 -31 39 -40 33 -67 32 -90 -3
-15 -23 -10 -75 7 -75 5 0 8 -5 7 -12 -2 -7 11 -15 27 -18 17 -3 29 -11 28
-18 -2 -7 3 -12 10 -13 6 0 21 -2 32 -5 11 -2 33 1 48 6 31 10 29 2 -6 -37
-11 -13 -16 -23 -11 -23 5 0 2 -5 -6 -10 -8 -5 -16 -14 -16 -20 -1 -5 -2 -15
-3 -21 0 -5 -5 -8 -10 -4 -10 6 -7 -27 4 -45 3 -6 2 -10 -4 -10 -13 0 -6 -73
8 -78 5 -2 7 -10 4 -18 -3 -8 3 -24 13 -36 11 -12 13 -18 6 -14 -11 7 -12 4
-2 -13 6 -12 15 -19 20 -16 6 3 7 0 4 -8 -7 -18 51 -61 71 -53 8 3 15 2 15 -3
0 -5 12 -11 26 -14 19 -3 32 2 47 19 11 13 24 21 28 18 9 -5 42 12 69 36 9 8
35 30 58 49 23 19 39 38 36 42 -2 4 1 11 7 15 8 5 9 3 4 -6 -5 -8 -3 -11 6 -8
8 3 13 11 11 17 -1 6 1 10 5 9 5 -1 18 4 31 11 19 10 21 15 11 27 -10 12 -9
13 7 7 17 -6 18 -5 4 12 -9 11 -10 16 -2 11 21 -13 35 5 15 19 -17 13 -16 14
5 8 22 -5 28 6 23 45 -1 6 2 12 6 12 4 0 9 12 9 26 2 31 9 38 26 28 28 -18
128 -5 128 17 0 4 11 10 25 13 16 4 25 13 25 26 0 15 7 20 27 20 26 0 26 1 7
15 -14 11 -15 14 -2 9 21 -7 45 31 27 42 -9 5 -6 11 6 21 11 7 13 13 6 13 -7
0 -10 4 -7 9 8 12 -13 28 -45 36 -31 8 -77 -15 -128 -62 -19 -18 -47 -37 -63
-44 -15 -6 -26 -15 -23 -19 3 -4 -2 -10 -10 -14 -8 -3 -15 -1 -15 5 0 6 -6 9
-13 6 -8 -3 -20 -1 -28 4 -10 6 -10 9 -1 9 20 0 14 28 -10 44 -12 9 -17 16
-10 16 11 0 11 3 0 14 -7 7 -20 23 -28 35 -8 11 -22 21 -32 21 -10 0 -18 5
-18 11 0 5 5 7 12 3 6 -4 8 -3 5 2 -3 6 -23 11 -44 12 -28 2 -50 -6 -85 -29z
m118 -102 c4 -4 2 -7 -4 -7 -9 0 -9 -6 0 -25 6 -14 15 -25 20 -25 4 0 7 -3 6
-7 -3 -16 22 -63 34 -63 9 0 9 -3 3 -8 -6 -4 -12 -18 -12 -31 -1 -13 -6 -27
-10 -30 -5 -3 -14 -18 -20 -33 -7 -16 -18 -28 -25 -28 -9 0 -8 -3 2 -10 12 -8
9 -10 -13 -10 -20 0 -30 -6 -34 -20 -3 -11 -10 -20 -17 -20 -17 0 -76 -56 -68
-64 4 -4 2 -6 -3 -5 -6 2 -29 -7 -53 -19 -23 -13 -47 -20 -52 -17 -16 10 -50
82 -42 90 4 3 -2 13 -12 21 -11 8 -14 14 -8 14 9 0 10 5 3 18 -7 13 -6 23 1
30 9 9 9 12 0 12 -6 0 -9 7 -6 15 4 8 9 13 13 11 3 -2 12 2 19 10 7 8 8 14 3
14 -6 0 -8 7 -4 15 3 9 2 15 -3 14 -5 -1 -22 -1 -39 0 -29 2 -29 2 -10 17 11
8 33 18 48 21 16 3 31 12 34 18 2 7 20 16 39 19 19 4 34 11 34 16 0 6 8 10 19
10 10 0 24 7 31 15 7 8 20 15 29 15 9 0 27 9 40 19 24 19 44 21 57 8z m-292
-183 c3 -8 2 -12 -4 -9 -6 3 -10 10 -10 16 0 14 7 11 14 -7z"/>
<path d="M1895 6900 c3 -5 11 -10 16 -10 6 0 7 5 4 10 -3 6 -11 10 -16 10 -6
0 -7 -4 -4 -10z"/>
<path d="M4553 6860 c-39 -24 -55 -52 -47 -84 9 -39 49 -76 81 -76 32 0 76 27
68 41 -4 5 -2 9 4 9 14 0 23 35 15 65 -4 16 -20 33 -45 45 -46 24 -37 24 -76
0z"/>
<path d="M1069 6853 c-1 -10 -1 -21 0 -25 0 -5 -5 -8 -11 -8 -7 0 -2 -7 10
-16 19 -13 38 -14 110 -8 136 11 145 10 187 -19 22 -15 51 -27 65 -27 19 0 22
-3 11 -9 -12 -8 -9 -11 11 -16 30 -8 48 0 48 19 0 11 -83 81 -98 81 -4 1 -16
6 -27 12 -28 15 -115 32 -145 28 -108 -16 -130 -17 -130 -6 0 18 -30 12 -31
-6z"/>
<path d="M2643 6840 c-66 -61 -23 -170 66 -170 40 0 90 28 84 48 -3 6 0 12 5
12 11 0 1 54 -16 87 -12 22 -59 43 -97 43 -11 0 -31 -9 -42 -20z"/>
<path d="M1885 6770 c3 -5 1 -10 -4 -10 -16 0 -12 -69 7 -125 14 -42 21 -50
42 -50 14 0 24 5 23 12 -2 7 -5 43 -9 80 -3 37 -10 73 -15 79 -5 6 -6 14 -2
17 3 4 -6 7 -21 7 -16 0 -25 -4 -21 -10z"/>
<path d="M1047 6759 c7 -7 15 -10 18 -7 3 3 -2 9 -12 12 -14 6 -15 5 -6 -5z"/>
<path d="M1012 6733 c-13 -3 -21 -10 -19 -16 2 -7 -3 -17 -10 -22 -8 -6 -16
-19 -18 -30 -2 -11 -4 -21 -5 -22 -2 -2 -3 -7 -4 -12 0 -5 -4 -13 -8 -17 -4
-4 -2 -14 5 -22 10 -13 9 -14 -1 -8 -10 6 -11 -5 -7 -51 8 -80 14 -96 32 -88
13 4 14 3 4 -9 -10 -12 -8 -19 8 -35 12 -12 16 -21 10 -21 -5 0 -7 -5 -4 -10
4 -6 10 -8 15 -5 5 3 7 -4 5 -15 -3 -14 4 -24 23 -35 16 -8 21 -15 12 -15 -9
-1 -5 -6 10 -13 14 -7 25 -19 25 -27 0 -39 147 -63 205 -33 19 10 34 24 32 31
-3 15 10 16 24 2 12 -12 44 -3 44 11 0 9 -12 12 -45 11 -41 -2 -125 19 -119
30 4 6 2 8 -4 4 -17 -10 -124 48 -122 67 2 13 -24 66 -31 61 -5 -3 -9 4 -9 15
0 11 -5 23 -10 26 -8 5 -7 11 1 21 7 8 7 14 1 14 -6 0 -8 19 -6 45 3 32 1 45
-8 45 -8 0 -9 3 -3 8 14 10 17 32 5 32 -5 0 -7 7 -3 15 3 9 8 13 11 10 3 -3
13 2 23 11 16 15 16 17 1 35 -9 10 -21 18 -27 18 -5 -1 -20 -4 -33 -6z m43
-13 c-3 -5 -12 -10 -18 -10 -7 0 -6 4 3 10 19 12 23 12 15 0z"/>
<path d="M1500 6721 c-16 -31 -12 -41 18 -41 21 0 24 -2 12 -10 -13 -8 -13
-10 2 -10 18 0 42 -33 32 -43 -3 -3 2 -20 11 -38 21 -40 16 -149 -9 -197 -22
-43 -63 -82 -86 -82 -19 0 -30 -17 -23 -37 3 -6 12 -9 21 -5 15 5 15 4 3 -12
-12 -14 -12 -19 -2 -26 8 -4 10 -13 7 -19 -4 -6 -2 -11 3 -11 6 0 11 -9 11
-19 0 -11 5 -23 10 -26 6 -4 8 -10 5 -15 -6 -9 50 -90 91 -135 32 -34 74 -93
74 -104 0 -6 8 -15 18 -20 10 -5 24 -22 32 -38 8 -15 33 -53 55 -83 22 -30 54
-75 70 -100 16 -25 43 -61 59 -80 138 -165 236 -270 236 -252 0 7 5 10 11 6 8
-5 8 -1 0 13 -6 11 -7 24 -3 28 4 5 1 5 -6 1 -7 -4 -10 -11 -8 -15 3 -4 -1 -8
-9 -8 -11 0 -12 3 -3 14 8 10 8 17 0 25 -7 7 -12 17 -12 24 0 7 -9 23 -20 36
-73 85 -200 251 -223 291 -15 26 -32 47 -37 47 -6 0 -10 6 -10 14 0 8 -7 21
-15 30 -21 20 -85 105 -85 112 0 7 -69 99 -117 157 -64 77 -84 116 -81 156 2
24 7 35 17 33 19 -4 69 54 93 108 16 36 19 62 16 128 -3 80 -4 85 -36 113 -18
16 -38 27 -44 23 -6 -4 -8 1 -3 15 6 21 -2 26 -35 21 -8 -1 -12 1 -8 6 4 4 0
13 -10 21 -9 8 -11 11 -3 7 9 -5 12 -3 7 4 -10 16 -14 15 -26 -7z"/>
<path d="M5075 6640 c-16 -7 -17 -9 -3 -9 9 -1 20 4 23 9 7 11 7 11 -20 0z"/>
<path d="M5663 6473 c-7 -2 -13 -9 -13 -14 0 -6 5 -7 12 -3 8 5 9 -2 5 -25 -5
-23 -3 -33 8 -37 8 -4 13 -9 11 -13 -2 -3 9 -7 25 -8 27 -2 28 -1 14 13 -8 9
-13 19 -10 24 3 5 1 11 -5 15 -6 4 -8 11 -5 16 4 5 -1 12 -10 15 -13 6 -14 8
-3 15 10 7 10 9 -2 8 -8 0 -21 -3 -27 -6z"/>
<path d="M5688 6303 c7 -3 16 -2 19 1 4 3 -2 6 -13 5 -11 0 -14 -3 -6 -6z"/>
<path d="M5678 6283 c7 -3 16 -2 19 1 4 3 -2 6 -13 5 -11 0 -14 -3 -6 -6z"/>
<path d="M5622 6256 c-30 -16 -148 -152 -166 -191 -7 -16 -21 -46 -30 -65 -9
-20 -30 -51 -46 -69 -17 -18 -30 -34 -30 -37 0 -4 -7 -12 -57 -67 -12 -14 -42
-51 -67 -84 -24 -33 -52 -65 -60 -73 -9 -7 -16 -19 -16 -26 0 -8 -7 -14 -15
-14 -8 0 -15 -7 -15 -15 0 -8 -4 -15 -8 -15 -5 0 -26 -22 -48 -50 -21 -27 -43
-49 -48 -50 -6 0 -37 -29 -70 -64 -58 -61 -64 -75 -58 -124 1 -7 37 22 80 65
42 42 76 81 75 85 -2 4 1 8 5 8 13 0 52 36 46 43 -3 3 13 20 36 38 29 23 37
35 28 41 -10 6 -9 8 3 8 17 0 57 38 58 55 1 6 7 10 14 10 6 0 13 13 15 28 2
16 11 31 20 35 23 8 46 32 38 39 -3 3 4 11 15 17 12 6 22 16 23 21 0 6 14 19
30 30 25 17 54 50 104 120 4 6 8 17 10 25 6 32 46 100 78 134 19 20 32 36 30
36 -2 0 14 17 35 39 42 42 49 61 22 61 -15 0 -16 2 -3 10 22 14 -1 11 -28 -4z"/>
<path d="M1755 6020 c3 -5 8 -10 11 -10 2 0 4 5 4 10 0 6 -5 10 -11 10 -5 0
-7 -4 -4 -10z"/>
<path d="M1780 6001 c0 -5 7 -15 17 -22 15 -13 15 -12 4 9 -12 23 -21 28 -21
13z"/>
<path d="M4186 5741 c-4 -5 -2 -12 3 -15 5 -4 12 -2 15 3 4 5 2 12 -3 15 -5 4
-12 2 -15 -3z"/>
<path d="M2650 5401 c0 -5 7 -12 16 -15 14 -5 15 -4 4 9 -14 17 -20 19 -20 6z"/>
<path d="M2729 5360 c24 -11 54 -23 67 -26 13 -3 24 -10 24 -16 0 -5 4 -7 8
-4 4 3 28 0 51 -5 82 -18 53 0 -51 31 -134 41 -153 44 -99 20z"/>
<path d="M2267 5313 c-30 -19 -36 -27 -27 -38 9 -10 6 -15 -10 -20 -44 -14
-12 -14 49 0 34 8 72 13 84 10 12 -2 42 -7 67 -10 25 -3 59 -8 75 -11 20 -3
37 0 50 11 11 9 13 13 5 9 -12 -6 -13 -5 -3 7 11 13 3 19 -60 37 -39 12 -99
23 -132 25 -51 3 -67 0 -98 -20z"/>
<path d="M4866 5307 c3 -10 9 -15 12 -12 3 3 0 11 -7 18 -10 9 -11 8 -5 -6z"/>
<path d="M2621 5261 c-8 -5 -10 -14 -6 -21 6 -9 4 -11 -5 -5 -10 6 -12 4 -7
-9 4 -10 7 -20 7 -22 0 -2 6 -4 14 -4 8 0 18 -5 22 -12 5 -7 2 -8 -7 -3 -11 6
-12 5 -2 -5 10 -10 15 -11 27 -1 27 23 -14 100 -43 82z"/>
<path d="M4770 5260 c-6 -4 -21 -5 -31 -3 -71 19 -268 -127 -335 -248 -10 -19
-25 -42 -33 -52 -8 -10 -16 -38 -18 -62 -3 -34 1 -46 15 -57 11 -7 19 -17 18
-23 0 -5 11 -10 27 -11 15 -1 27 2 27 7 0 4 6 9 13 12 7 2 6 3 -3 3 -8 -1 -25
9 -36 21 l-21 23 34 70 c19 39 39 70 45 70 5 0 8 7 4 15 -3 8 0 14 7 12 7 -1
11 6 11 15 -1 9 4 14 11 12 6 -3 18 3 26 12 9 12 10 15 2 10 -7 -4 -13 -5 -13
-2 0 3 17 13 37 21 28 12 34 18 24 25 -11 6 -7 9 15 12 18 2 28 8 26 16 -1 8
2 10 8 7 6 -4 21 1 32 12 12 10 18 12 14 6 -10 -18 -4 -16 34 12 19 14 42 25
52 25 10 0 18 6 18 14 0 8 8 16 18 18 15 3 15 4 1 10 -9 3 -22 3 -29 -2z"/>
<path d="M2243 5198 c1 -7 -7 -14 -18 -16 -11 -2 -24 -9 -30 -14 -7 -8 -5 -9
5 -4 8 4 6 0 -4 -8 -16 -13 -17 -16 -4 -16 8 0 21 -7 28 -15 9 -10 9 -15 1
-15 -6 0 -11 5 -11 10 0 6 -6 10 -14 10 -15 0 -16 -16 -3 -37 5 -7 4 -13 -2
-13 -5 0 -7 -12 -4 -27 2 -16 5 -40 6 -55 1 -18 7 -28 17 -28 13 0 13 -2 0
-10 -12 -8 -12 -10 3 -16 12 -4 16 -13 12 -25 -6 -18 4 -24 30 -19 6 1 5 -4
-2 -11 -9 -9 -8 -17 4 -35 18 -27 71 -57 86 -47 5 3 7 1 4 -4 -8 -12 20 -26
33 -18 5 3 11 1 14 -4 3 -5 -8 -8 -24 -7 -17 1 -30 -1 -30 -6 0 -4 9 -8 20 -8
11 0 20 -4 20 -10 0 -5 -8 -7 -17 -3 -15 5 -14 3 2 -10 15 -11 22 -12 28 -4 5
8 7 5 6 -8 -3 -35 1 -42 27 -53 20 -10 24 -10 19 0 -4 7 -1 6 7 -3 13 -16 43
-15 33 2 -4 5 1 6 9 3 9 -3 16 -9 16 -13 0 -4 11 -8 26 -9 17 -1 23 2 18 11
-5 9 -4 9 5 1 14 -12 64 -6 56 7 -3 4 -13 6 -23 3 -13 -4 -13 -3 2 7 14 9 24
9 37 1 12 -8 20 -8 24 -2 4 6 11 8 16 5 5 -4 9 -1 9 4 0 6 3 10 8 10 20 -3 23
3 11 19 -11 14 -11 15 1 5 18 -16 44 -17 34 -1 -4 6 1 17 12 25 17 12 15 13
-19 9 -21 -3 -37 -1 -37 5 0 6 5 7 10 4 6 -3 10 -1 10 5 0 7 6 10 13 7 8 -3
14 1 14 9 0 10 -6 13 -16 8 -9 -3 -22 -9 -30 -12 -11 -4 -13 0 -8 14 6 17 6
17 -5 3 -7 -9 -18 -14 -24 -12 -6 2 -21 -5 -33 -16 -12 -11 -29 -17 -36 -15
-7 3 -16 1 -20 -5 -4 -8 -12 -8 -26 -1 -11 6 -24 8 -29 5 -13 -8 -80 5 -80 16
0 5 12 4 26 -1 14 -6 23 -6 20 -1 -6 10 -74 44 -95 47 -7 2 -18 7 -24 13 -7 7
-2 8 14 4 21 -6 23 -5 10 10 -7 9 -10 17 -5 17 4 0 -2 9 -14 20 -12 12 -22 27
-22 35 0 8 -4 15 -9 15 -5 0 -11 9 -14 21 -3 12 -9 19 -14 16 -5 -3 -9 11 -10
31 -3 74 -8 112 -15 112 -4 0 -5 9 -3 21 3 16 1 18 -9 10 -18 -15 -29 -1 -13
17 9 13 9 14 0 8 -7 -4 -13 -3 -13 3 0 5 7 14 16 19 15 8 15 10 0 15 -9 4 -15
2 -13 -5z m175 -490 c-2 -7 3 -12 10 -10 8 1 11 -2 7 -8 -5 -8 -11 -8 -21 1
-7 6 -11 15 -8 20 8 13 14 11 12 -3z"/>
<path d="M2660 5138 c0 -6 8 -20 18 -31 9 -11 11 -17 5 -13 -24 14 -14 -34 12
-58 19 -18 22 -25 12 -36 -9 -10 -9 -13 1 -17 6 -3 10 -9 6 -14 -3 -5 3 -9 13
-9 11 0 14 -3 7 -8 -19 -12 -12 -42 10 -42 19 0 19 -1 2 -13 -17 -12 -17 -14
-2 -20 23 -9 49 3 38 17 -5 6 -8 22 -7 36 1 14 0 30 -4 35 -3 6 -6 12 -6 15
-3 14 -51 105 -58 108 -4 2 -4 8 -1 13 3 6 -4 19 -17 30 -26 22 -29 23 -29 7z
m47 -74 c-3 -3 -12 -4 -19 -1 -8 3 -5 6 6 6 11 1 17 -2 13 -5z"/>
<path d="M4902 5136 c7 -8 16 -12 21 -9 11 7 -2 23 -19 23 -12 0 -12 -2 -2
-14z"/>
<path d="M4887 5119 c7 -7 15 -10 18 -7 3 3 -2 9 -12 12 -14 6 -15 5 -6 -5z"/>
<path d="M4912 5110 c-18 -15 -24 -30 -24 -65 0 -25 -4 -45 -10 -45 -6 0 -8
-6 -5 -14 3 -8 -3 -22 -13 -31 -11 -10 -17 -21 -14 -26 2 -4 -4 -13 -15 -18
-11 -6 -23 -20 -26 -31 -3 -11 -13 -20 -20 -20 -8 0 -26 -12 -40 -26 -14 -14
-31 -24 -38 -21 -7 2 -20 0 -31 -5 -12 -7 -16 -7 -12 0 6 11 3 11 -67 12 -26
0 -36 4 -31 12 4 7 -6 2 -23 -10 -17 -12 -37 -22 -45 -22 -7 -1 1 -7 18 -14
18 -8 35 -19 38 -25 4 -5 12 -9 19 -7 7 1 9 1 4 -1 -13 -8 3 -23 24 -23 10 0
19 -5 19 -11 0 -7 5 -8 13 -2 6 5 27 8 45 7 17 -1 32 2 32 8 0 6 6 5 15 -2 10
-9 15 -9 15 -1 0 6 11 11 25 11 22 0 30 9 26 32 0 5 2 7 7 7 22 -4 42 3 63 21
21 17 21 19 4 14 -11 -4 -3 6 17 22 21 16 37 35 38 42 0 6 4 12 10 12 5 0 12
11 16 25 3 14 10 25 16 25 5 0 6 5 3 10 -4 6 -1 17 5 25 10 12 9 15 -4 15 -10
0 -14 5 -11 10 4 6 11 7 17 4 6 -4 8 -2 4 4 -3 5 0 13 6 15 7 3 2 6 -12 6 -19
1 -22 3 -10 10 8 6 18 7 22 5 4 -3 8 -1 8 5 0 5 -5 13 -10 16 -6 4 -8 10 -5
15 3 5 0 12 -6 16 -8 5 -9 3 -4 -6 5 -9 4 -11 -4 -6 -9 6 -9 11 -1 21 8 9 6
14 -6 19 -19 7 -15 9 -42 -14z"/>
<path d="M4160 5111 c0 -6 4 -13 10 -16 6 -3 7 1 4 9 -7 18 -14 21 -14 7z"/>
<path d="M5720 4890 c0 -5 5 -10 10 -10 6 0 10 5 10 10 0 6 -4 10 -10 10 -5 0
-10 -4 -10 -10z"/>
<path d="M2805 4780 c-9 -14 4 -32 17 -24 6 4 8 3 5 -3 -8 -12 42 -50 77 -59
14 -3 23 -10 20 -15 -3 -5 2 -9 10 -9 8 0 22 -7 30 -16 9 -9 22 -17 29 -18 6
-1 23 -8 35 -15 13 -7 35 -15 50 -17 14 -3 44 -13 66 -24 48 -22 166 -53 173
-46 3 3 17 0 32 -5 48 -19 273 -28 371 -15 19 2 60 7 90 11 30 3 56 10 58 15
2 5 10 6 19 3 10 -4 14 -2 10 3 -4 6 6 9 24 6 19 -3 36 2 48 12 10 9 22 16 27
15 5 -1 27 6 49 15 22 10 52 23 68 29 15 7 27 15 27 18 0 4 11 10 25 13 14 4
25 11 25 17 0 6 4 8 9 4 5 -3 12 -1 16 5 3 5 -1 10 -10 10 -9 0 -14 4 -11 9 3
5 16 7 29 4 18 -4 19 -3 7 6 -13 9 -12 11 5 11 11 0 27 5 35 11 12 8 9 9 -10
4 l-25 -6 25 15 25 15 -26 1 c-14 0 -46 -13 -72 -30 -26 -16 -52 -30 -57 -30
-4 0 -10 -4 -12 -9 -5 -13 -149 -82 -159 -75 -5 3 -9 0 -9 -6 0 -6 -10 -8 -24
-4 -14 3 -29 0 -38 -10 -9 -8 -18 -13 -20 -11 -2 3 -20 0 -39 -6 -55 -16 -179
-20 -293 -10 -129 13 -161 25 -90 36 86 12 234 67 234 87 0 9 -475 9 -527 0
-31 -6 -29 -16 5 -29 26 -10 25 -11 -13 -8 -48 3 -120 33 -224 92 -50 28 -79
39 -85 33 -6 -6 -15 -10 -20 -10 -6 0 -4 5 4 10 9 6 10 10 3 10 -6 0 -15 -4
-18 -10z"/>
</g>
</svg>
